# xmcd
#
# Track frame offsets:
#	150
#	10244
#	24907
#	41358
#	54081
#	66409
#	77120
#	85441
#	127514
#	141160
#	151978
#	166312
#	182239
#	203465
#	217991
#	229910
#	251474
#	273136
#	289444
#	310598
#	327783
#
# Disc length: 4518 seconds
#
# Revision: 0
# Processed by: cddbd v1.5.1PL0 Copyright (c) Steve Scherf et al.
# Submitted via: dBpowerAMP V4.0
#
DISCID=1111a415
DTITLE=Blues Dimension - Blues Dimension
DYEAR=2002
DGENRE=Blues
TTITLE0=Get ready
TTITLE1=Wonderland
TTITLE2=Your one and only man
TTITLE3=Things I remember
TTITLE4=Twilight mood
TTITLE5=Don't wanna lose her
TTITLE6=Sticks and stones
TTITLE7=Blues dimension
TTITLE8=Lovely adorable Sue
TTITLE9=Baby I need your lovin' 
TTITLE10=Double deal
TTITLE11=Stay
TTITLE12=Battle-field of love
TTITLE13=Ivory tower of Utopia
TTITLE14=Supernatural powers
TTITLE15=I ain't superstitious
TTITLE16=Society's child
TTITLE17=B.D. is dead, long live B.D.
TTITLE18=Shapes of things
TTITLE19=Cornflakes
TTITLE20=Drift into space
EXTD=
EXTT0=
EXTT1=
EXTT2=
EXTT3=
EXTT4=
EXTT5=
EXTT6=
EXTT7=
EXTT8=
EXTT9=
EXTT10=
EXTT11=
EXTT12=
EXTT13=
EXTT14=
EXTT15=
EXTT16=
EXTT17=
EXTT18=
EXTT19=
EXTT20=
PLAYORDER=
